<svg width="69" height="36" viewBox="0 0 69 36" fill="none" xmlns="http://www.w3.org/2000/svg">
<rect width="69" height="36" rx="18" fill="white"/>
<path fill-rule="evenodd" clip-rule="evenodd" d="M43.2094 17.6461C43.0903 12.8505 39.1348 9 34.2762 9C29.4176 9 25.5461 12.7595 25.336 17.4851C25.336 17.6181 25.329 17.7441 25.329 17.8771C25.329 19.5574 25.7981 21.1186 26.6102 22.4627L25 27.2164L29.9496 25.6412C31.2308 26.3412 32.701 26.7473 34.2692 26.7473C39.2118 26.7473 43.2094 22.7778 43.2094 17.8701C43.2094 17.7931 43.2094 17.7161 43.2094 17.6461ZM34.2762 25.3331C32.75 25.3331 31.3288 24.8781 30.1387 24.101L27.2473 25.0251L28.1854 22.2527C27.2823 21.0206 26.7572 19.5084 26.7572 17.8771C26.7572 17.6321 26.7712 17.3941 26.7922 17.1561C27.1633 13.3756 30.3767 10.4142 34.2692 10.4142C38.1617 10.4142 41.4591 13.4456 41.7602 17.2891C41.7742 17.4851 41.7882 17.6741 41.7882 17.8701C41.7882 21.9867 38.4137 25.3261 34.2692 25.3261L34.2762 25.3331Z" fill="#B7B7B7"/>
<path fill-rule="evenodd" clip-rule="evenodd" d="M38.3718 19.6623C38.1478 19.5503 37.0766 19.0252 36.8736 18.9552C36.6706 18.8782 36.5236 18.8432 36.3766 19.0672C36.2295 19.2842 35.8095 19.7743 35.6835 19.9143C35.5504 20.0613 35.4314 20.0753 35.2074 19.9703C34.9904 19.8583 34.2833 19.6343 33.4432 18.8922C32.7921 18.3181 32.351 17.604 32.225 17.387C32.099 17.17 32.211 17.0509 32.323 16.9459C32.421 16.8479 32.5401 16.6939 32.6521 16.5679C32.6801 16.5329 32.7081 16.4979 32.7291 16.4629C32.7781 16.3859 32.8201 16.3088 32.8691 16.2038C32.9461 16.0568 32.9041 15.9308 32.8551 15.8258C32.7991 15.7138 32.358 14.6426 32.176 14.2086C31.994 13.7745 31.812 13.8515 31.6789 13.8515C31.5459 13.8515 31.4059 13.8305 31.2589 13.8305C31.1119 13.8305 30.8738 13.8865 30.6708 14.1036C30.4678 14.3206 29.9077 14.8457 29.9077 15.9168C29.9077 16.1688 29.9567 16.4209 30.0197 16.6589C30.2438 17.422 30.7198 18.0591 30.8038 18.1641C30.9158 18.3041 32.316 20.5724 34.5423 21.4475C36.7756 22.3156 36.7756 22.0216 37.1747 21.9866C37.5737 21.9516 38.4698 21.4615 38.6518 20.9504C38.8339 20.4464 38.8339 20.0053 38.7849 19.9143C38.7289 19.8233 38.5818 19.7743 38.3648 19.6623H38.3718Z" fill="#B7B7B7"/>
</svg>
